<svg width="50" height="50" viewBox="0 0 50 50" fill="none" xmlns="http://www.w3.org/2000/svg">
<path d="M39.9073 31.9804L38.6731 25.2672C38.2764 22.1987 35.6504 19.8882 32.5541 19.8882H17.4457C14.3494 19.8882 11.7234 22.1987 11.3267 25.2672L10.0925 31.9804C9.47893 35.3183 11.9952 38.4354 15.3703 38.5708C18.5863 38.6996 21.1701 36.074 21.1802 32.9411C21.1803 32.93 20.8173 32.9338 28.8197 32.9338C28.8197 36.056 31.4037 38.7003 34.6296 38.5708C37.9894 38.4359 40.5239 35.3342 39.9073 31.9804ZM20.7689 27.7626H19.2998V29.2317C19.2998 29.7185 18.9051 30.1132 18.4183 30.1132C17.9315 30.1132 17.5368 29.7185 17.5368 29.2317V27.7626H16.0677C15.5809 27.7626 15.1862 27.368 15.1862 26.8812C15.1862 26.3943 15.5809 25.9997 16.0677 25.9997H17.5368V24.5306C17.5368 24.0438 17.9315 23.6491 18.4183 23.6491C18.9051 23.6491 19.2998 24.0438 19.2998 24.5306V25.9997H20.7689C21.2557 25.9997 21.6503 26.3943 21.6503 26.8812C21.6503 27.368 21.2557 27.7626 20.7689 27.7626ZM30.1124 26.9399C30.1124 27.4267 29.7177 27.8214 29.2309 27.8214C28.7441 27.8214 28.3495 27.4267 28.3495 26.9399V26.8812C28.3495 26.3943 28.7441 25.9997 29.2309 25.9997C29.7177 25.9997 30.1124 26.3943 30.1124 26.8812V26.9399ZM32.4589 29.3187C32.4109 29.7808 32.0125 30.1514 31.4945 30.1091C31.0013 30.0576 30.655 29.6188 30.7042 29.1453C30.7568 28.638 31.2233 28.2676 31.7537 28.3673C32.2219 28.4646 32.5024 28.891 32.4589 29.3187ZM32.4589 24.617C32.4083 25.1142 31.965 25.4559 31.4945 25.4079C31.0002 25.3563 30.656 24.9172 30.7042 24.4436C30.7581 23.9343 31.2252 23.5668 31.7537 23.6662C32.2231 23.7637 32.5029 24.1922 32.4589 24.617ZM34.8136 26.9399C34.8136 27.4267 34.4189 27.8214 33.9321 27.8214C33.4453 27.8214 33.0506 27.4267 33.0506 26.9399V26.8812C33.0506 26.3943 33.4453 25.9997 33.9321 25.9997C34.4189 25.9997 34.8136 26.3943 34.8136 26.8812V26.9399Z" fill="#2E7EE0"/>
<path d="M22.7145 16.1338C22.3702 16.478 22.3702 17.0361 22.7145 17.3804C23.0587 17.7245 23.6168 17.7245 23.961 17.3804C24.5352 16.8062 25.4645 16.8061 26.0387 17.3804C26.3829 17.7246 26.941 17.7246 27.2852 17.3804C27.6295 17.0361 27.6295 16.478 27.2852 16.1338C26.0252 14.8736 23.9747 14.8736 22.7145 16.1338Z" fill="#2E7EE0"/>
<path d="M21.3017 14.7209C23.3456 12.677 26.654 12.6767 28.6981 14.7209C29.0423 15.0651 29.6004 15.0651 29.9446 14.7209C30.2889 14.3767 30.2889 13.8186 29.9446 13.4743C27.2119 10.7415 22.7883 10.7411 20.0551 13.4743C19.7109 13.8186 19.7109 14.3767 20.0551 14.7209C20.3994 15.0651 20.9575 15.0651 21.3017 14.7209Z" fill="#2E7EE0"/>
<path d="M15.8282 47.1912C11.4343 45.3798 7.67833 42.3026 5.03793 38.3509C2.39752 34.3992 0.991982 29.7515 1.00004 24.9988C0.994062 21.8454 1.6108 18.7218 2.81488 15.8073C4.01896 12.8928 5.78667 10.2447 8.0166 8.01498C10.2465 5.78527 12.8948 4.01781 15.8094 2.81401C18.724 1.61021 21.8477 0.993768 25.0011 1.00005C28.1545 0.993767 31.278 1.61023 34.1925 2.81405C37.107 4.01788 39.7551 5.78538 41.9849 8.01512C44.2146 10.2449 45.9821 12.893 47.1859 15.8075C48.3898 18.722 49.0062 21.8455 49 24.9988C49.0056 28.1521 48.3888 31.2755 47.1848 34.1898C45.9807 37.1042 44.2133 39.7522 41.9837 41.982C39.7541 44.2118 37.1062 45.9795 34.192 47.1838C31.2777 48.3881 28.1544 49.0052 25.0011 48.9999C21.8539 49.0107 18.7358 48.3958 15.8282 47.1912V47.1912Z" stroke="#2E7EE0" stroke-width="2" stroke-miterlimit="10"/>
</svg>
