<svg width="30" height="30" viewBox="0 0 30 30" fill="none" xmlns="http://www.w3.org/2000/svg">
<g clip-path="url(#clip0_2_102)">
<path d="M15.0439 13.4722C16.3776 13.4722 17.4588 12.391 17.4588 11.0572C17.4588 9.7235 16.3776 8.6423 15.0439 8.6423C13.7102 8.6423 12.629 9.7235 12.629 11.0572C12.629 12.391 13.7102 13.4722 15.0439 13.4722Z" fill="#2E7EE0"/>
<path d="M15.0006 0C6.71664 0 0.000976562 6.71587 0.000976562 14.9998C0.000976562 23.2836 6.71664 30 15.0006 30C23.2846 30 30.0008 23.2836 30.0008 14.9998C30.0008 6.71587 23.2846 0 15.0006 0ZM14.9695 6.86787C14.9801 6.86787 14.9905 6.86737 15.0009 6.86687C15.0113 6.86737 15.0216 6.86787 15.0323 6.86787C17.5598 6.90777 19.6158 8.99669 19.6158 11.5247C19.6158 14.6155 16.3133 17.7453 15.0009 18.8667C14.9132 18.7917 14.816 18.7072 14.712 18.6146C14.7102 18.613 14.7086 18.6117 14.7071 18.6102C13.2547 17.3196 10.3862 14.4056 10.3862 11.5247C10.3861 8.99669 12.4423 6.90787 14.9695 6.86787ZM15.066 23.2252C12.2997 23.2252 9.49907 22.4316 9.49907 20.9154C9.49907 19.8513 10.8781 19.1437 12.656 18.8159C12.9999 19.1616 13.3254 19.4664 13.611 19.7208C11.6744 19.9371 10.5366 20.5502 10.5366 20.9151C10.5366 21.3635 12.2561 22.1875 15.066 22.1875C17.876 22.1875 19.5958 21.3635 19.5958 20.9151C19.5958 20.5427 18.41 19.9142 16.403 19.7099C16.6911 19.4526 17.0192 19.145 17.3657 18.7957C19.1971 19.1145 20.6332 19.8292 20.6332 20.9154C20.6332 22.4316 17.8326 23.2252 15.066 23.2252Z" fill="#2E7EE0"/>
</g>
<defs>
<clipPath id="clip0_2_102">
<rect width="30" height="30" fill="white"/>
</clipPath>
</defs>
</svg>