<svg width="30" height="30" viewBox="0 0 30 30" fill="none" xmlns="http://www.w3.org/2000/svg">
<g clip-path="url(#clip0_2_85)">
<path d="M15.5362 29.9821C17.8303 29.6562 19.8414 27.2618 21.1069 23.7258C19.2775 23.3161 17.4106 23.0962 15.5362 23.07V29.9821Z" fill="#2E7EE0"/>
<path d="M19.2013 29.42C19.3369 29.3807 19.472 29.3412 19.606 29.2977C19.7191 29.2613 19.8306 29.2221 19.9422 29.1831C20.0741 29.1375 20.2055 29.0907 20.3364 29.0409C20.4479 28.9985 20.5584 28.9535 20.6692 28.9084C20.7969 28.8548 20.9244 28.8014 21.0506 28.7477C21.1608 28.6993 21.2702 28.6485 21.3797 28.5974C21.5035 28.5391 21.6268 28.4796 21.7491 28.4178C21.8564 28.3631 21.9635 28.3074 22.0708 28.25C22.191 28.1856 22.3103 28.1199 22.4289 28.0524C22.5363 27.9916 22.6397 27.9306 22.7441 27.8678C22.8604 27.7963 22.9761 27.7249 23.091 27.6534C23.1939 27.588 23.2965 27.5215 23.3978 27.4529C23.5109 27.3767 23.6225 27.2974 23.7335 27.218C23.8332 27.1466 23.9324 27.0754 24.0298 27.0036C24.1371 26.9209 24.2471 26.8353 24.3547 26.7494C24.4503 26.6732 24.5455 26.5976 24.6395 26.5193C24.7466 26.4303 24.8492 26.3381 24.9532 26.246C25.0443 26.1651 25.1359 26.085 25.2249 26.002C25.3273 25.9064 25.427 25.8075 25.5267 25.7093C25.6131 25.624 25.7006 25.5399 25.7851 25.4525C25.8008 25.4363 25.8158 25.4187 25.832 25.402C24.6626 24.798 23.4308 24.3239 22.1582 23.9883C21.4964 26.0989 20.3186 28.0115 18.7316 29.5525C18.7751 29.5412 18.8185 29.532 18.862 29.5208C18.9767 29.4886 19.0892 29.4532 19.2013 29.42Z" fill="#2E7EE0"/>
<path d="M30.0001 15.5484H23.5714C23.5471 18.0585 23.1829 20.5536 22.4889 22.9661C23.9042 23.3441 25.2699 23.8876 26.558 24.5853C28.6728 22.0364 29.8833 18.8585 30.0001 15.5484Z" fill="#2E7EE0"/>
<path d="M15.5362 14.4761H22.4991C22.4719 12.0548 22.1167 9.6484 21.4436 7.32236C19.5047 7.76453 17.5245 8.00067 15.5362 8.02685V14.4761Z" fill="#2E7EE0"/>
<path d="M15.5362 0.0424194V6.95457C17.4106 6.92813 19.2775 6.70849 21.1069 6.29878C19.8414 2.76272 17.8303 0.368353 15.5362 0.0424194Z" fill="#2E7EE0"/>
<path d="M15.5362 21.9977C17.5245 22.0241 19.5047 22.2603 21.4436 22.7024C22.1167 20.3764 22.4719 17.9697 22.4991 15.5484H15.5362V21.9977Z" fill="#2E7EE0"/>
<path d="M26.558 5.43927C25.2699 6.13695 23.9042 6.68044 22.4889 7.05847C23.1829 9.4709 23.5471 11.9661 23.5714 14.4761H30.0001C29.883 11.1663 28.6725 7.98836 26.558 5.43927Z" fill="#2E7EE0"/>
<path d="M25.8336 4.62592C25.8179 4.60995 25.803 4.59268 25.7875 4.57618C25.7027 4.48874 25.6147 4.40445 25.5283 4.31936C25.4289 4.22119 25.3296 4.12197 25.227 4.02668C25.1383 3.94395 25.0464 3.86567 24.9553 3.78321C24.8513 3.69106 24.7474 3.59812 24.6406 3.50911C24.5479 3.43083 24.4529 3.35596 24.3586 3.28082C24.2513 3.19391 24.1414 3.10752 24.0309 3.02453C23.934 2.95149 23.8358 2.8808 23.7371 2.81012C23.6251 2.72949 23.5125 2.64911 23.3984 2.57241C23.2981 2.50487 23.1963 2.43889 23.0944 2.37423C22.9785 2.29962 22.8627 2.22658 22.7447 2.15589C22.6413 2.09385 22.5368 2.03259 22.4321 1.97316C22.3122 1.90457 22.192 1.83808 22.0708 1.77315C21.9635 1.71948 21.8564 1.6611 21.7491 1.60744C21.6258 1.54513 21.5014 1.48518 21.3739 1.42627C21.2666 1.37522 21.1577 1.32548 21.0472 1.27705C20.9202 1.22077 20.7919 1.16998 20.6639 1.11631C20.5535 1.07128 20.4435 1.02678 20.332 0.984365C20.2019 0.934624 20.0699 0.888025 19.938 0.842472C19.8264 0.803203 19.7149 0.764196 19.6018 0.727544C19.4678 0.684087 19.3338 0.644556 19.196 0.604763C19.0845 0.572039 18.9725 0.538791 18.8596 0.508946C18.8164 0.497166 18.7725 0.488003 18.729 0.476746C20.316 2.01767 21.4936 3.93007 22.1556 6.04092C23.4295 5.7053 24.6631 5.23093 25.8336 4.62592Z" fill="#2E7EE0"/>
<path d="M0 14.4761H6.42862C6.45297 11.9661 6.81712 9.4709 7.51088 7.05847C6.09588 6.6807 4.7301 6.13721 3.44207 5.43927C1.3273 7.9881 0.11676 11.1663 0 14.4761Z" fill="#2E7EE0"/>
<path d="M14.4638 29.9821V23.07C12.5894 23.0964 10.7225 23.3161 8.89313 23.7258C10.1584 27.2618 12.1697 29.6562 14.4638 29.9821Z" fill="#2E7EE0"/>
<path d="M14.4639 15.5484H7.50092C7.52814 17.9697 7.88314 20.3764 8.55647 22.7024C10.4953 22.26 12.4753 22.0239 14.4639 21.9977V15.5484Z" fill="#2E7EE0"/>
<path d="M14.4638 0.0424194C12.1697 0.368353 10.1584 2.76272 8.89313 6.29878C10.7225 6.70875 12.5894 6.92839 14.4638 6.95457V0.0424194Z" fill="#2E7EE0"/>
<path d="M14.4639 8.02685C12.4755 8.00067 10.4953 7.76453 8.55647 7.32236C7.88314 9.6484 7.52814 12.0548 7.50092 14.4761H14.4639V8.02685Z" fill="#2E7EE0"/>
<path d="M11.2668 0.476227C11.2234 0.487484 11.1799 0.496647 11.1365 0.507904C11.0228 0.538272 10.9108 0.572044 10.7977 0.604768C10.6631 0.644037 10.5296 0.683568 10.3945 0.726502C10.2807 0.763415 10.1686 0.802684 10.0566 0.841692C9.9254 0.888029 9.79398 0.934105 9.66413 0.983322C9.55209 1.02626 9.44161 1.07076 9.33061 1.11631C9.20311 1.16998 9.07536 1.22365 8.94944 1.27706C8.83896 1.32549 8.72979 1.37628 8.62036 1.42733C8.49653 1.48571 8.37323 1.54513 8.25097 1.60692C8.14363 1.66163 8.0363 1.71766 7.92922 1.77473C7.80906 1.83913 7.68994 1.9051 7.57161 1.97264C7.46428 2.03259 7.35878 2.09412 7.25537 2.15695C7.13887 2.22711 7.02368 2.29962 6.90901 2.37136C6.80587 2.43733 6.7035 2.50382 6.60219 2.57241C6.4891 2.6486 6.37757 2.72792 6.26657 2.80724C6.16683 2.87871 6.06761 2.94992 5.96996 3.02191C5.86027 3.10438 5.75555 3.19025 5.64507 3.27585C5.54978 3.35204 5.4537 3.4277 5.3605 3.5065C5.25317 3.59498 5.15133 3.68661 5.04792 3.77824C4.95629 3.85992 4.86388 3.93924 4.77434 4.0238C4.67251 4.11883 4.57329 4.21753 4.47381 4.31544C4.38741 4.40078 4.29945 4.48508 4.21463 4.57278C4.19918 4.58901 4.18426 4.60682 4.16803 4.62331C5.3372 5.22753 6.5692 5.70164 7.84179 6.03726C8.5036 3.92772 9.68063 2.01636 11.2668 0.476227Z" fill="#2E7EE0"/>
<path d="M4.47146 25.7052C4.5712 25.8034 4.67042 25.9026 4.77278 25.9982C4.86179 26.0806 4.95342 26.1589 5.04479 26.2414C5.14872 26.3338 5.25265 26.4265 5.35946 26.5155C5.45214 26.5932 5.54665 26.6684 5.64142 26.7438C5.74875 26.8307 5.85583 26.9171 5.96944 27.0006C6.06605 27.0731 6.16422 27.1433 6.26239 27.2153C6.37444 27.2956 6.48753 27.376 6.60168 27.4532C6.70194 27.5208 6.80378 27.5867 6.90562 27.6517C7.0216 27.726 7.13731 27.7991 7.25538 27.8697C7.35879 27.932 7.46324 27.993 7.56796 28.0527C7.68786 28.1213 7.80803 28.1878 7.92924 28.2525C8.03631 28.3061 8.14365 28.3645 8.25098 28.4182C8.37429 28.4805 8.49864 28.5405 8.62613 28.5996C8.73347 28.6501 8.84238 28.6999 8.95285 28.7486C9.07982 28.8049 9.20784 28.8557 9.33612 28.9093C9.4466 28.9544 9.55655 28.9989 9.66808 29.0413C9.79819 29.0913 9.93013 29.1379 10.0621 29.1834C10.1736 29.2224 10.2851 29.2617 10.3982 29.2981C10.5323 29.3415 10.6663 29.3813 10.804 29.4209C10.9155 29.4536 11.0276 29.4868 11.1401 29.5169C11.1836 29.5287 11.2276 29.5379 11.271 29.5491C9.68404 28.008 8.50649 26.0956 7.84442 23.9847C6.57183 24.3206 5.33983 24.7947 4.17065 25.3992C4.18636 25.4152 4.20128 25.4324 4.21699 25.4489C4.29736 25.5358 4.38402 25.6201 4.47146 25.7052Z" fill="#2E7EE0"/>
<path d="M3.44207 24.5853C4.7301 23.8876 6.09588 23.3441 7.51088 22.9661C6.81712 20.5536 6.45297 18.0585 6.42862 15.5484H0C0.117022 18.8582 1.3273 22.0362 3.44207 24.5853Z" fill="#2E7EE0"/>
</g>
<defs>
<clipPath id="clip0_2_85">
<rect width="30" height="30" fill="white"/>
</clipPath>
</defs>
</svg>
