<?xml version="1.0" encoding="utf-8"?>
<!-- Svg Vector Icons : http://www.onlinewebfonts.com/icon -->
<!DOCTYPE svg PUBLIC "-//W3C//DTD SVG 1.1//EN" "http://www.w3.org/Graphics/SVG/1.1/DTD/svg11.dtd">
<svg version="1.1" xmlns="http://www.w3.org/2000/svg" xmlns:xlink="http://www.w3.org/1999/xlink" x="0px" y="0px" viewBox="0 0 1000 1000" enable-background="new 0 0 1000 1000" xml:space="preserve">
<metadata> Svg Vector Icons : http://www.onlinewebfonts.com/icon </metadata>
<g><path d="M442.9,496.8l-75.7-27.6v-21.4l75.7,27.6V496.8z M442.9,570.3l-75.7-27.6v21.4l75.7,27.6V570.3z M569.9,496.8l75.7-27.6v-21.4l-75.7,27.6V496.8z M569.9,591.7l75.7-27.6v-21.4l-75.7,27.6V591.7z M990,500c0-270.2-219.8-490-490-490C229.8,10,10,229.8,10,500c0,270.2,219.8,490,490,490C770.2,990,990,770.2,990,500z M969.8,500c0,259-210.7,469.8-469.8,469.8C241,969.8,30.2,759,30.2,500C30.2,241,241,30.2,500,30.2C759,30.2,969.8,241,969.8,500z M716.8,296.1v359.1l-210.3,76.6l-210.4-76.6V296.1l210.4,76.5L716.8,296.1z M316.3,641.1l180,65.5v-316l-180-65.5V641.1z M696.5,325l-180,65.5v316l180-65.5V325z"/></g>
</svg>