<svg width="50" height="50" viewBox="0 0 50 50" fill="none" xmlns="http://www.w3.org/2000/svg">
<path d="M35.847 32.4999H31.1601L28.2748 28.6531L29.7138 24.3363L34.098 22.6253L37.932 25.3199L35.847 32.4999ZM28.7158 37.3213H21.2834L19.7111 33.1224L22.5889 29.2857H27.4102L30.288 33.1224L28.7158 37.3213ZM14.1521 32.4999L12.0677 25.3215L15.9012 22.6269L20.2854 24.3363L21.7243 28.6531L18.839 32.4999H14.1521ZM12.0162 17.5034L13.716 17.4922L15.1913 21.8143L11.4537 24.4392L10.0824 23.4267C10.3018 21.338 10.9609 19.3193 12.0162 17.5034ZM20.7091 12.809L24.4639 15.6253V20.4466L20.6309 23.3212L16.2547 21.6128L14.7323 17.1546L20.7091 12.809ZM29.29 12.809L35.2663 17.1547L33.7444 21.6128L29.3682 23.3212L25.5353 20.4466V15.6253L29.29 12.809ZM27.2918 28.2143H22.7073L21.3445 24.1258L24.9996 21.384L28.6547 24.1258L27.2918 28.2143ZM38.5448 24.4419L34.8077 21.817L36.283 17.4949L37.9828 17.5061C39.0386 19.3228 39.6977 21.3424 39.9167 23.4321L38.5448 24.4419ZM37.2972 16.4288L36.0763 16.4208L29.7389 11.8137L29.3516 10.6491C32.572 11.6327 35.3696 13.6678 37.2972 16.4288ZM28.1173 10.3282L28.653 11.946L24.9996 14.6878L21.3439 11.946L21.8796 10.3282C23.9352 9.89108 26.0597 9.89108 28.1152 10.3282H28.1173ZM20.6475 10.6464L20.2602 11.811L13.9223 16.4181L12.7019 16.4288C14.629 13.6668 17.4267 11.6308 20.6475 10.6464ZM10.0073 24.7055L10.9823 25.4254L13.1964 33.0501L12.9821 33.9662C11.0431 31.3794 9.99649 28.2329 9.99982 25.0001C9.99982 24.9015 10.0052 24.804 10.0073 24.7055ZM13.8382 35.0076L14.1746 33.5713H18.7356L20.2698 37.6689L18.8984 38.6975C16.9718 37.8356 15.2478 36.5784 13.8382 35.0076ZM20.0652 39.162L21.0889 38.3927H28.9102L29.9355 39.162C26.7408 40.2791 23.2615 40.2791 20.0668 39.162H20.0652ZM31.1007 38.6975L29.7293 37.669L31.2635 33.5714H35.8245L36.1609 35.0076C34.7512 36.5783 33.0272 37.8355 31.1007 38.6975ZM37.0175 33.9662L36.8033 33.0496L39.0168 25.4254L39.9923 24.7055C39.9923 24.804 39.9998 24.9016 39.9998 25.0001C40.0031 28.2329 38.9566 31.3794 37.0175 33.9662Z" fill="#2E7EE0"/>
<path d="M15.8282 47.1912C11.4343 45.3798 7.67833 42.3026 5.03793 38.3509C2.39752 34.3992 0.991982 29.7515 1.00004 24.9988C0.994062 21.8454 1.6108 18.7218 2.81488 15.8073C4.01896 12.8928 5.78667 10.2447 8.0166 8.01498C10.2465 5.78527 12.8948 4.01781 15.8094 2.81401C18.724 1.61021 21.8477 0.993768 25.0011 1.00005C28.1545 0.993767 31.278 1.61023 34.1925 2.81405C37.107 4.01788 39.7551 5.78538 41.9849 8.01512C44.2146 10.2449 45.9821 12.893 47.1859 15.8075C48.3898 18.722 49.0062 21.8455 49 24.9988C49.0056 28.1521 48.3888 31.2755 47.1848 34.1898C45.9807 37.1042 44.2133 39.7522 41.9837 41.982C39.7541 44.2118 37.1062 45.9795 34.192 47.1838C31.2777 48.3881 28.1544 49.0052 25.0011 48.9999C21.8539 49.0107 18.7358 48.3958 15.8282 47.1912V47.1912Z" stroke="#2E7EE0" stroke-width="2" stroke-miterlimit="10"/>
</svg>
