<svg width="50" height="50" viewBox="0 0 50 50" fill="none" xmlns="http://www.w3.org/2000/svg">
<path d="M39.196 33.3685C38.3857 33.6256 37.6213 34.0097 36.9315 34.5064C36.2943 34.9342 35.2613 35.3857 34.7012 34.8825C33.8974 34.1583 35.4817 32.3589 35.4817 30.4808C35.476 29.0258 34.4539 27.9659 32.6751 27.5728C32.1995 27.476 31.7585 27.2538 31.3975 26.9294C31.6201 26.3187 31.6682 25.6582 31.5367 25.0218C32.3953 24.1275 33.8017 24.0866 35.2639 22.4873C39.1308 24.604 40.8165 29.2688 39.196 33.3685ZM30.8498 21.383C32.0228 21.3589 33.1884 21.5741 34.2755 22.0156C33.0718 23.1783 32.1263 23.2182 31.2025 23.9294L30.4784 21.7533L30.8498 21.383ZM29.6436 19.0151C29.9912 18.667 30.0615 18.5495 30.2643 18.5454C30.4406 18.534 30.4624 18.6023 31.0862 19.2271C31.2107 19.3727 31.1962 19.5911 31.0536 19.719L30.1137 20.6583L29.5805 19.0585C29.6025 19.0456 29.6236 19.031 29.6436 19.0151ZM22.845 11.514C22.9157 11.4419 23.0114 11.3997 23.1124 11.3961C23.1962 11.3921 23.2779 11.4228 23.3384 11.4809L23.9337 12.0768C24.0573 12.2231 24.0429 12.4409 23.9012 12.5697L23.7631 12.7078L22.1037 12.2552L22.845 11.514ZM19.0075 16.7583C18.987 16.7609 18.9666 16.7645 18.9465 16.7692C18.8616 16.7913 18.7713 16.768 18.7075 16.7076C18.6474 16.6434 18.624 16.553 18.6455 16.4676C18.6502 16.4481 18.6537 16.4282 18.6558 16.4082C18.7063 16.208 18.7756 16.013 18.8627 15.8257L19.9489 16.3683C19.6565 16.5448 19.3391 16.6763 19.0075 16.7583ZM25.1255 19.687C23.3694 21.442 22.0706 22.2856 19.7637 23.9335C19.4495 24.157 19.3055 24.5511 19.4017 24.9245L19.8568 26.7452L19.5356 27.0664L15.5012 23.032L15.8224 22.7113L17.6431 23.167C18.0172 23.2612 18.4108 23.1159 18.6341 22.8013C20.2712 20.5099 21.1329 19.1883 22.8812 17.4401C22.9984 17.3225 23.052 17.1558 23.0254 16.9919C22.9988 16.828 22.8951 16.6869 22.7467 16.6125L15.0444 12.7611C15.662 12.0947 16.5986 11.8262 17.4755 12.0644L25.5093 14.2564C25.7775 14.3284 26.0639 14.2521 26.2608 14.0563L28.5367 11.7804C30.4148 9.90282 31.9101 9.9261 32.5194 10.0461C32.5913 10.4532 32.6746 11.9361 30.7681 14.0464C29.7822 15.1378 28.531 16.4045 28.1715 16.7661C27.9642 16.9732 27.8926 17.28 27.9868 17.5575L30.5001 25.0932C30.7386 25.9699 30.4704 26.9066 29.8039 27.5242L25.9541 19.8209C25.8797 19.6722 25.7383 19.5683 25.5741 19.5418C25.4099 19.5152 25.243 19.5693 25.1255 19.687ZM26.1962 22.6192L26.7387 23.7054C26.5342 23.803 26.3184 23.8751 26.0963 23.9201C26.0113 23.9443 25.9198 23.9205 25.8573 23.858C25.7948 23.7955 25.7711 23.704 25.7953 23.619C25.8723 23.2662 26.0078 22.9288 26.1962 22.6208V22.6192ZM22.5005 28.0001C22.8498 28.6349 23.402 29.1343 24.0687 29.4183C25.2067 29.8895 26.6932 29.7178 26.6141 30.6623C26.5413 31.1943 26.3921 31.7131 26.1713 32.2026C25.5506 33.7895 25.5889 34.224 25.7751 35.3061C25.9351 35.9296 25.926 36.5845 25.7487 37.2033C22.8904 35.0851 21.605 31.4432 22.5005 28.0001ZM29.7243 38.8689C30.8622 38.108 32.0834 37.7206 34.2243 37.8768C34.4992 37.8987 34.7728 37.9346 35.0441 37.9844C33.408 38.8314 31.5464 39.1409 29.7243 38.8689ZM36.2746 37.2168C34.6494 36.7393 32.9302 36.6788 31.2755 37.0409C30.2165 37.3207 29.2373 37.8435 28.4156 38.5678C27.8051 38.3776 27.2173 38.1211 26.6627 37.8028C26.9577 36.9434 27.0034 36.0181 26.7946 35.1339C26.6394 34.2333 26.5918 33.967 27.1344 32.5818C27.3939 32.0001 27.566 31.3833 27.6449 30.7513C27.7224 30.0196 27.3009 29.3266 26.6156 29.0589C25.8455 28.7216 25.0965 28.7263 24.4639 28.4645C23.7007 28.0806 23.1657 27.3564 23.0229 26.514C23.3877 25.7099 23.8733 24.9663 24.4629 24.309C24.5663 24.1911 24.6848 24.0871 24.7955 23.9759C24.8461 24.2069 24.9604 24.4191 25.1255 24.5883C25.7074 25.1708 26.4703 24.9706 27.2022 24.6307L28.9375 28.1035C29.0728 28.3731 29.3292 28.5614 29.627 28.6098C29.9247 28.6581 30.2276 28.5606 30.4412 28.3476C30.6002 28.198 30.7479 28.0367 30.8829 27.8651C31.3475 28.2163 31.8833 28.4619 32.4527 28.5845C33.3599 28.7847 34.4425 29.2782 34.4472 30.4844C34.4472 31.8194 33.4717 32.9858 33.4437 34.2799C33.4168 35.5332 34.4736 36.278 35.6824 36.1176C36.9237 35.9573 37.6205 35.2037 38.5272 34.7402C37.9427 35.703 37.1778 36.5439 36.2746 37.2168Z" fill="#2E7EE0"/>
<path d="M16.7426 37.9766C13.6334 36.5769 11.7714 34.4697 11.2112 31.7133C10.3898 27.6742 12.6269 23.0128 15.0527 20.3909C15.2418 20.1806 15.2269 19.8574 15.0193 19.6654C14.8117 19.4734 14.4884 19.4837 14.2934 19.6885C11.6074 22.5918 9.29894 27.4994 10.1974 31.9197C10.8279 35.02 12.887 37.3756 16.3174 38.92C16.5779 39.0375 16.8843 38.9214 17.0017 38.6609C17.1191 38.4004 17.0031 38.094 16.7426 37.9766Z" fill="#2E7EE0"/>
<path d="M14.7155 31.0652C14.5439 29.7453 14.9631 28.417 15.8612 27.4347C16.0572 27.2317 16.0544 26.9091 15.8549 26.7096C15.6554 26.5101 15.3328 26.5073 15.1298 26.7033C14.0129 27.905 13.4841 29.5389 13.6852 31.1671C13.9195 33.5288 15.3786 35.7188 17.7941 37.3269C18.0318 37.4855 18.353 37.4213 18.5116 37.1836C18.6701 36.946 18.6059 36.6248 18.3683 36.4662C16.2155 35.0309 14.9183 33.113 14.7155 31.0652Z" fill="#2E7EE0"/>
<path d="M18.4655 32.048C18.3279 31.3318 18.5103 30.5913 18.9646 30.0209C19.1607 29.818 19.1579 29.4954 18.9583 29.2958C18.7588 29.0963 18.4362 29.0935 18.2333 29.2895C16.9324 30.5904 17.0379 33.4792 19.2678 35.7106C19.4707 35.9066 19.7933 35.9038 19.9928 35.7043C20.1924 35.5048 20.1952 35.1822 19.9991 34.9792C19.1793 34.1975 18.6403 33.1672 18.4655 32.048Z" fill="#2E7EE0"/>
<path d="M16.0127 19.3104C16.2984 19.3104 16.53 19.0788 16.53 18.7931C16.53 18.5075 16.2984 18.2759 16.0127 18.2759C15.7271 18.2759 15.4955 18.5075 15.4955 18.7931C15.4955 19.0788 15.7271 19.3104 16.0127 19.3104Z" fill="#2E7EE0"/>
<path d="M15.8282 47.1912C11.4343 45.3798 7.67833 42.3026 5.03793 38.3509C2.39752 34.3992 0.991982 29.7515 1.00004 24.9988C0.994062 21.8454 1.6108 18.7218 2.81488 15.8073C4.01896 12.8928 5.78667 10.2447 8.0166 8.01498C10.2465 5.78527 12.8948 4.01781 15.8094 2.81401C18.724 1.61021 21.8477 0.993768 25.0011 1.00005C28.1545 0.993767 31.278 1.61023 34.1925 2.81405C37.107 4.01788 39.7551 5.78538 41.9849 8.01512C44.2146 10.2449 45.9821 12.893 47.1859 15.8075C48.3898 18.722 49.0062 21.8455 49 24.9988C49.0056 28.1521 48.3888 31.2755 47.1848 34.1898C45.9807 37.1042 44.2133 39.7522 41.9837 41.982C39.7541 44.2118 37.1062 45.9795 34.192 47.1838C31.2777 48.3881 28.1544 49.0052 25.0011 48.9999C21.8539 49.0107 18.7358 48.3958 15.8282 47.1912V47.1912Z" stroke="#2E7EE0" stroke-width="2" stroke-miterlimit="10"/>
</svg>
