<svg width="50" height="50" viewBox="0 0 50 50" fill="none" xmlns="http://www.w3.org/2000/svg">
<path d="M37.2449 13.6735H12.7551C11.2359 13.6735 10 14.9094 10 16.4285V33.5714C10 35.0905 11.2359 36.3264 12.7551 36.3264H37.2449C38.7641 36.3264 40 35.0905 40 33.5714V16.4285C40 14.9094 38.7641 13.6735 37.2449 13.6735ZM22.6384 17.9826L28.8048 21.5427C29.4166 21.8959 29.4157 22.7807 28.8048 23.1333L22.6384 26.6935C22.0306 27.0444 21.2608 26.6093 21.2608 25.8982V18.7779C21.2608 18.0715 22.0274 17.6297 22.6384 17.9826ZM34.1837 32.0287H19.5252V32.1365C19.5252 32.6437 19.114 33.0549 18.6068 33.0549C18.0996 33.0549 17.6884 32.6437 17.6884 32.1365V32.0287H15.8163C15.3091 32.0287 14.898 31.6175 14.898 31.1103C14.898 30.6031 15.3092 30.192 15.8163 30.192H17.6884V30.0842C17.6884 29.577 18.0996 29.1658 18.6068 29.1658C19.114 29.1658 19.5252 29.577 19.5252 30.0842V30.192H34.1837C34.6909 30.192 35.102 30.6032 35.102 31.1103C35.102 31.6176 34.6909 32.0287 34.1837 32.0287Z" fill="#2E7EE0"/>
<path d="M15.8282 47.1912C11.4343 45.3798 7.67833 42.3026 5.03793 38.3509C2.39752 34.3992 0.991982 29.7515 1.00004 24.9988C0.994062 21.8454 1.6108 18.7218 2.81488 15.8073C4.01896 12.8928 5.78667 10.2447 8.0166 8.01498C10.2465 5.78527 12.8948 4.01781 15.8094 2.81401C18.724 1.61021 21.8477 0.993768 25.0011 1.00005C28.1545 0.993767 31.278 1.61023 34.1925 2.81405C37.107 4.01788 39.7551 5.78538 41.9849 8.01512C44.2146 10.2449 45.9821 12.893 47.1859 15.8075C48.3898 18.722 49.0062 21.8455 49 24.9988C49.0056 28.1521 48.3888 31.2755 47.1848 34.1898C45.9807 37.1042 44.2133 39.7522 41.9837 41.982C39.7541 44.2118 37.1062 45.9795 34.192 47.1838C31.2777 48.3881 28.1544 49.0052 25.0011 48.9999C21.8539 49.0107 18.7358 48.3958 15.8282 47.1912V47.1912Z" stroke="#2E7EE0" stroke-width="2" stroke-miterlimit="10"/>
</svg>
