<svg width="50" height="50" viewBox="0 0 50 50" fill="none" xmlns="http://www.w3.org/2000/svg">
<path d="M15.511 31.1881L10.6836 36.0156C9.77213 36.927 9.77213 38.4049 10.6836 39.3164C11.5951 40.2279 13.0729 40.2279 13.9844 39.3164L18.8118 34.489C17.5628 33.5493 16.4506 32.4372 15.511 31.1881Z" fill="#2E7EE0"/>
<path d="M18.028 28.6713L16.7678 29.9314C17.6873 31.1977 18.8024 32.3127 20.0686 33.2323L21.3288 31.9721C20.041 31.0785 18.9215 29.9591 18.028 28.6713Z" fill="#2E7EE0"/>
<path d="M26.802 18.6289C27.1682 19.3728 27.8532 19.9921 28.7345 20.3337C29.6157 19.992 30.3008 19.3728 30.667 18.6289H26.802Z" fill="#2E7EE0"/>
<path d="M30.667 23.9023C30.3008 23.1584 29.6158 22.5391 28.7345 22.1974C27.8533 22.5391 27.1683 23.1584 26.8021 23.9023H30.667Z" fill="#2E7EE0"/>
<path d="M24.7485 26.0247V25.1451C24.7485 23.6171 25.5323 22.1977 26.8047 21.2655C25.5324 20.3333 24.7485 18.914 24.7485 17.386V16.5063C23.3893 17.6466 22.5236 19.3567 22.5236 21.2655C22.5236 23.1743 23.3893 24.8844 24.7485 26.0247Z" fill="#2E7EE0"/>
<path d="M30.9626 25.6601H26.5062V27.0629C27.1982 27.3298 27.9494 27.4765 28.7344 27.4765C29.5193 27.4765 30.2705 27.3298 30.9625 27.0629V25.6601H30.9626Z" fill="#2E7EE0"/>
<path d="M17.4689 21.2656C17.4689 27.4775 22.5226 32.5312 28.7345 32.5312C34.9463 32.5311 40 27.4774 40 21.2656C40 15.0538 34.9463 10 28.7345 10C22.5226 10 17.4689 15.0537 17.4689 21.2656ZM28.7344 13.2968C33.1283 13.2968 36.7031 16.8716 36.7031 21.2656C36.7031 25.6595 33.1283 29.2343 28.7344 29.2343C24.3405 29.2343 20.7656 25.6595 20.7656 21.2656C20.7656 16.8716 24.3405 13.2968 28.7344 13.2968Z" fill="#2E7EE0"/>
<path d="M26.5062 16.871H30.9626V15.4682C30.2706 15.2013 29.5194 15.0546 28.7344 15.0546C27.9495 15.0546 27.1983 15.2013 26.5063 15.4682V16.871H26.5062Z" fill="#2E7EE0"/>
<path d="M32.7205 17.3861C32.7205 18.9141 31.9368 20.3335 30.6644 21.2656C31.9368 22.1978 32.7205 23.6172 32.7205 25.1452V26.0248C34.0797 24.8846 34.9455 23.1744 34.9455 21.2656C34.9455 19.3568 34.0797 17.6467 32.7205 16.5065V17.3861Z" fill="#2E7EE0"/>
<path d="M15.8282 47.1912C11.4343 45.3798 7.67833 42.3026 5.03793 38.3509C2.39752 34.3992 0.991982 29.7515 1.00004 24.9988C0.994062 21.8454 1.6108 18.7218 2.81488 15.8073C4.01896 12.8928 5.78667 10.2447 8.0166 8.01498C10.2465 5.78527 12.8948 4.01781 15.8094 2.81401C18.724 1.61021 21.8477 0.993768 25.0011 1.00005C28.1545 0.993767 31.278 1.61023 34.1925 2.81405C37.107 4.01788 39.7551 5.78538 41.9849 8.01512C44.2146 10.2449 45.9821 12.893 47.1859 15.8075C48.3898 18.722 49.0062 21.8455 49 24.9988C49.0056 28.1521 48.3888 31.2755 47.1848 34.1898C45.9807 37.1042 44.2133 39.7522 41.9837 41.982C39.7541 44.2118 37.1062 45.9795 34.192 47.1838C31.2777 48.3881 28.1544 49.0052 25.0011 48.9999C21.8539 49.0107 18.7358 48.3958 15.8282 47.1912V47.1912Z" stroke="#2E7EE0" stroke-width="2" stroke-miterlimit="10"/>
</svg>
