<svg width="50" height="50" viewBox="0 0 50 50" fill="none" xmlns="http://www.w3.org/2000/svg">
<path d="M30.332 24.1797H10.8789C10.3931 24.1797 10 24.5728 10 25.0586V37.3633C10 38.8172 11.1828 40 12.6367 40H28.5742C30.0282 40 31.2109 38.8172 31.2109 37.3633V25.0586C31.2109 24.5728 30.8178 24.1797 30.332 24.1797ZM25.8203 29.4531C25.8203 32.3611 23.4548 34.7266 20.5469 34.7266C17.6389 34.7266 15.2734 32.3611 15.2734 29.4531V28.5742C15.2734 28.0884 15.6665 27.6953 16.1523 27.6953C16.6381 27.6953 17.0312 28.0884 17.0312 28.5742V29.4531C17.0312 31.3921 18.6079 32.9688 20.5469 32.9688C22.4858 32.9688 24.0625 31.3921 24.0625 29.4531V28.5742C24.0625 28.0884 24.4556 27.6953 24.9414 27.6953C25.4272 27.6953 25.8203 28.0884 25.8203 28.5742V29.4531Z" fill="#2E7EE0"/>
<path d="M39.1211 17.1484H34.6094V15.2734C34.6094 12.3655 32.2439 10 29.3359 10C26.428 10 24.0625 12.3655 24.0625 15.2734V17.1484H19.5508C19.065 17.1484 18.6719 17.5415 18.6719 18.0273V22.4219H30.332C31.786 22.4219 32.9688 23.6046 32.9688 25.0586V37.3633C32.9688 38.3563 32.6251 39.2632 32.0674 40H37.3633C38.8172 40 40 38.8172 40 37.3633V18.0273C40 17.5415 39.6069 17.1484 39.1211 17.1484ZM32.8516 17.1484H25.8203V15.2734C25.8203 13.3345 27.397 11.7578 29.3359 11.7578C31.2749 11.7578 32.8516 13.3345 32.8516 15.2734V17.1484Z" fill="#2E7EE0"/>
<path d="M15.8282 47.1912C11.4343 45.3798 7.67833 42.3026 5.03793 38.3509C2.39752 34.3992 0.991982 29.7515 1.00004 24.9988C0.994062 21.8454 1.6108 18.7218 2.81488 15.8073C4.01896 12.8928 5.78667 10.2447 8.0166 8.01498C10.2465 5.78527 12.8948 4.01781 15.8094 2.81401C18.724 1.61021 21.8477 0.993768 25.0011 1.00005C28.1545 0.993767 31.278 1.61023 34.1925 2.81405C37.107 4.01788 39.7551 5.78538 41.9849 8.01512C44.2146 10.2449 45.9821 12.893 47.1859 15.8075C48.3898 18.722 49.0062 21.8455 49 24.9988C49.0056 28.1521 48.3888 31.2755 47.1848 34.1898C45.9807 37.1042 44.2133 39.7522 41.9837 41.982C39.7541 44.2118 37.1062 45.9795 34.192 47.1838C31.2777 48.3881 28.1544 49.0052 25.0011 48.9999C21.8539 49.0107 18.7358 48.3958 15.8282 47.1912V47.1912Z" stroke="#2E7EE0" stroke-width="2" stroke-miterlimit="10"/>
</svg>
